<?xml version="1.0" standalone="no"?>
<!DOCTYPE svg PUBLIC "-//W3C//DTD SVG 20010904//EN"
 "http://www.w3.org/TR/2001/REC-SVG-20010904/DTD/svg10.dtd">
<svg version="1.0" xmlns="http://www.w3.org/2000/svg"
 width="128.000000pt" height="128.000000pt" viewBox="0 0 128.000000 128.000000"
 preserveAspectRatio="xMidYMid meet">

<g transform="translate(0.000000,128.000000) scale(0.100000,-0.100000)"
fill="#000000" stroke="none">
<path d="M339 1021 l-24 -19 0 -351 c0 -323 1 -352 18 -368 15 -16 44 -19 230
-24 169 -4 221 -9 257 -23 37 -14 51 -16 89 -6 61 15 100 45 122 94 34 74 20
155 -35 205 l-26 24 0 174 c0 186 -2 196 -54 251 -56 61 -62 62 -319 62 -216
0 -237 -2 -258 -19z m545 -71 l46 -49 0 -165 0 -165 -33 6 c-76 12 -175 -50
-193 -122 -7 -29 -1 -110 11 -137 7 -17 -5 -18 -167 -18 -122 0 -178 4 -186
12 -17 17 -17 659 0 676 9 9 77 12 244 12 l231 0 47 -50z m52 -426 c69 -33 95
-125 54 -192 -13 -21 -38 -41 -67 -54 -39 -17 -52 -19 -84 -9 -114 34 -137
190 -36 251 39 24 88 25 133 4z"/>
<path d="M573 935 c-32 -14 -53 -41 -53 -69 0 -24 41 -20 47 4 3 10 14 22 24
25 60 20 82 -44 29 -83 -22 -16 -30 -31 -30 -52 0 -37 26 -41 39 -7 5 13 21
31 35 40 30 20 43 75 26 107 -6 12 -27 28 -45 36 -40 16 -32 17 -72 -1z"/>
<path d="M583 694 c-3 -8 -1 -20 5 -26 16 -16 42 -2 42 22 0 24 -38 28 -47 4z"/>
<path d="M410 610 c0 -19 7 -20 195 -20 188 0 195 1 195 20 0 19 -7 20 -195
20 -188 0 -195 -1 -195 -20z"/>
<path d="M417 534 c-4 -4 -7 -13 -7 -21 0 -10 29 -13 136 -13 124 0 135 2 132
18 -3 15 -18 17 -129 20 -69 1 -128 -1 -132 -4z"/>
<path d="M410 430 c0 -19 7 -20 95 -20 88 0 95 1 95 20 0 19 -7 20 -95 20 -88
0 -95 -1 -95 -20z"/>
<path d="M894 425 l-37 -46 -22 21 c-24 23 -55 27 -55 7 0 -15 61 -77 76 -77
14 0 114 114 114 129 0 26 -42 7 -76 -34z"/>
</g>
</svg>
